<svg id="services1" xmlns="http://www.w3.org/2000/svg" xmlns:xlink="http://www.w3.org/1999/xlink" width="43.01" height="43.01" viewBox="0 0 43.01 43.01"><defs><style>.cls-1{fill:url(#Adsız_degrade);}</style><linearGradient id="Adsız_degrade" x1="5.64" y1="27.15" x2="48.65" y2="27.15" gradientUnits="userSpaceOnUse"><stop offset="0" stop-color="#9f78ff"/><stop offset="1" stop-color="#f067ff"/></linearGradient></defs><path class="cls-1" d="M17.12,17.3a5.38,5.38,0,0,0-3.64,3.48L5.64,44.28l1.24,1.24L19.49,32.91a4,4,0,1,1,3.63,2.3,4,4,0,0,1-1.73-.4L8.78,47.42,10,48.65l23.51-7.83A5.38,5.38,0,0,0,37,37.18l3.6-12.72L29.84,13.71,17.12,17.3Zm30.35-5.43-5-5a4,4,0,0,0-5.7,0L32,11.57,42.72,22.33l4.75-4.75A4,4,0,0,0,47.47,11.87Z" transform="translate(-5.64 -5.64)"/></svg>