<svg id="services2" xmlns="http://www.w3.org/2000/svg" xmlns:xlink="http://www.w3.org/1999/xlink" width="52.19" height="41.75" viewBox="0 0 52.19 41.75"><defs><style>.cls-1{fill:url(#Adsız_degrade);}</style><linearGradient id="Adsız_degrade" x1="1.05" y1="27.15" x2="53.24" y2="27.15" gradientUnits="userSpaceOnUse"><stop offset="0" stop-color="#9f78ff"/><stop offset="1" stop-color="#f067ff"/></linearGradient></defs><path class="cls-1" d="M21.85,27.61a1.3,1.3,0,0,0,1.84,0l.93-.92a1.31,1.31,0,0,0,0-1.85L21.7,21.93,24.62,19a1.31,1.31,0,0,0,0-1.85l-.93-.92a1.3,1.3,0,0,0-1.84,0L17.09,21a1.3,1.3,0,0,0,0,1.84Zm7.83-.92.92.92a1.31,1.31,0,0,0,1.85,0l4.75-4.76a1.3,1.3,0,0,0,0-1.84l-4.75-4.76a1.31,1.31,0,0,0-1.85,0l-.92.92a1.31,1.31,0,0,0,0,1.85l2.91,2.91-2.91,2.91a1.31,1.31,0,0,0,0,1.85ZM51.94,40.2H32.17a2.57,2.57,0,0,1-2.67,2.61h-5a2.77,2.77,0,0,1-2.67-2.61H2.36a1.31,1.31,0,0,0-1.31,1.3v1.31A5.23,5.23,0,0,0,6.27,48H48a5.22,5.22,0,0,0,5.22-5.21V41.5A1.3,1.3,0,0,0,51.94,40.2ZM48,10.18a3.92,3.92,0,0,0-3.91-3.91H10.18a3.92,3.92,0,0,0-3.91,3.91V37.59H48ZM42.81,32.37H11.49V11.49H42.81Z" transform="translate(-1.05 -6.27)"/></svg>