<svg id="services1" xmlns="http://www.w3.org/2000/svg" xmlns:xlink="http://www.w3.org/1999/xlink" width="44.25" height="44.25" viewBox="0 0 44.25 44.25"><defs><style>.cls-1{fill:url(#Adsız_degrade);}</style><linearGradient id="Adsız_degrade" x1="5.02" y1="27.15" x2="49.27" y2="27.15" gradientUnits="userSpaceOnUse"><stop offset="0" stop-color="#9f78ff"/><stop offset="1" stop-color="#f067ff"/></linearGradient></defs><path class="cls-1" d="M27.15,5A22.13,22.13,0,1,0,49.27,27.15,22.13,22.13,0,0,0,27.15,5ZM37.6,36A13.34,13.34,0,0,1,27.8,40a12.57,12.57,0,0,1-12.89-13A12.56,12.56,0,0,1,27.73,14.26,12.85,12.85,0,0,1,37,17.73a1.07,1.07,0,0,1,.11,1.3l-2,3.09a1.07,1.07,0,0,1-1.62.21,9.08,9.08,0,0,0-5.52-2.13c-4.12,0-6.6,3-6.6,6.79,0,3.53,2.28,7.11,6.63,7.11a8.75,8.75,0,0,0,5.85-2.56,1.07,1.07,0,0,1,1.65.1l2.19,3a1.08,1.08,0,0,1,0,1.33Z" transform="translate(-5.02 -5.02)"/></svg>