<svg id="services1" xmlns="http://www.w3.org/2000/svg" xmlns:xlink="http://www.w3.org/1999/xlink" width="47.69" height="33.38" viewBox="0 0 47.69 33.38"><defs><style>.cls-1{fill:url(#Adsız_degrade);}</style><linearGradient id="Adsız_degrade" x1="3.04" y1="29.26" x2="50.73" y2="29.26" gradientUnits="userSpaceOnUse"><stop offset="0" stop-color="#9f78ff"/><stop offset="1" stop-color="#f067ff"/></linearGradient></defs><path class="cls-1" d="M10.2,26.88a4.77,4.77,0,1,0-4.77-4.77A4.78,4.78,0,0,0,10.2,26.88Zm33.38,0a4.77,4.77,0,1,0-4.77-4.77A4.78,4.78,0,0,0,43.58,26.88ZM46,29.26H41.19a4.76,4.76,0,0,0-3.36,1.39,10.87,10.87,0,0,1,5.6,8.15h4.92a2.39,2.39,0,0,0,2.38-2.39V34A4.78,4.78,0,0,0,46,29.26Zm-19.07,0a8.35,8.35,0,1,0-8.35-8.34A8.33,8.33,0,0,0,26.89,29.26Zm5.72,2.38H32a11.46,11.46,0,0,1-10.21,0h-.61a8.6,8.6,0,0,0-8.59,8.59v2.14A3.58,3.58,0,0,0,16.16,46H37.62a3.57,3.57,0,0,0,3.57-3.58V40.23A8.59,8.59,0,0,0,32.61,31.64Zm-16.67-1a4.74,4.74,0,0,0-3.36-1.39H7.81A4.78,4.78,0,0,0,3,34v2.38A2.39,2.39,0,0,0,5.43,38.8h4.91a10.92,10.92,0,0,1,5.6-8.15Z" transform="translate(-3.04 -12.57)"/></svg>