<svg id="services1" xmlns="http://www.w3.org/2000/svg" xmlns:xlink="http://www.w3.org/1999/xlink" viewBox="0 0 52.19 41.75"><defs><style>.cls-1{fill:url(#Adsız_degrade);}</style><linearGradient id="Adsız_degrade" x1="0.9" y1="27.5" x2="53.1" y2="27.5" gradientUnits="userSpaceOnUse"><stop offset="0" stop-color="#9f78ff"/><stop offset="1" stop-color="#f067ff"/></linearGradient></defs><path class="cls-1" d="M21.7,28a1.31,1.31,0,0,0,1.85,0l.92-.92a1.31,1.31,0,0,0,0-1.85l-2.91-2.91,2.91-2.91a1.31,1.31,0,0,0,0-1.85l-.92-.92a1.31,1.31,0,0,0-1.85,0l-4.76,4.76a1.3,1.3,0,0,0,0,1.84ZM29.53,27l.92.92a1.31,1.31,0,0,0,1.85,0l4.76-4.76a1.3,1.3,0,0,0,0-1.84L32.3,16.6a1.31,1.31,0,0,0-1.85,0l-.92.92a1.31,1.31,0,0,0,0,1.85l2.91,2.91-2.91,2.91a1.31,1.31,0,0,0,0,1.85ZM51.79,40.55H32a2.57,2.57,0,0,1-2.67,2.61h-5a2.77,2.77,0,0,1-2.67-2.61H2.21A1.31,1.31,0,0,0,.9,41.85v1.31a5.24,5.24,0,0,0,5.22,5.22H47.88a5.24,5.24,0,0,0,5.22-5.22V41.85A1.31,1.31,0,0,0,51.79,40.55Zm-3.91-30A3.93,3.93,0,0,0,44,6.62H10a3.93,3.93,0,0,0-3.92,3.92v27.4H47.88ZM42.66,32.72H11.34V11.84H42.66Z" transform="translate(-0.9 -6.62)"/></svg>