<svg id="services1" xmlns="http://www.w3.org/2000/svg" xmlns:xlink="http://www.w3.org/1999/xlink" width="33.75" height="45" viewBox="0 0 33.75 45"><defs><style>.cls-1{fill:url(#Adsız_degrade);}</style><linearGradient id="Adsız_degrade" x1="10.27" y1="27.15" x2="44.02" y2="27.15" gradientUnits="userSpaceOnUse"><stop offset="0" stop-color="#9f78ff"/><stop offset="1" stop-color="#f067ff"/></linearGradient></defs><path class="cls-1" d="M30,16.6v-12H12.38a2.1,2.1,0,0,0-2.11,2.11V47.54a2.1,2.1,0,0,0,2.11,2.11H41.91A2.1,2.1,0,0,0,44,47.54V18.71h-12A2.12,2.12,0,0,1,30,16.6Zm5.62,20.74a1.06,1.06,0,0,1-1,1.06H19.76a1.06,1.06,0,0,1-1.05-1.06v-.7a1.06,1.06,0,0,1,1.05-1.06H34.53a1.06,1.06,0,0,1,1,1.06Zm0-5.62a1,1,0,0,1-1,1.05H19.76a1,1,0,0,1-1.05-1.05V31A1,1,0,0,1,19.76,30H34.53a1,1,0,0,1,1,1.05Zm0-6.33v.7a1.06,1.06,0,0,1-1,1.06H19.76a1.06,1.06,0,0,1-1.05-1.06v-.7a1.06,1.06,0,0,1,1.05-1.06H34.53A1.06,1.06,0,0,1,35.58,25.39Zm8.44-10v.54H32.77V4.65h.54a2.11,2.11,0,0,1,1.49.61l8.61,8.62A2.11,2.11,0,0,1,44,15.36Z" transform="translate(-10.27 -4.65)"/></svg>